<svg width="20" height="20" viewBox="0 0 20 20" fill="none" xmlns="http://www.w3.org/2000/svg">
<path d="M4.16665 1.66669H15.8333C16.0543 1.66669 16.2663 1.75448 16.4226 1.91076C16.5788 2.06704 16.6666 2.27901 16.6666 2.50002V17.5C16.6666 17.721 16.5788 17.933 16.4226 18.0893C16.2663 18.2456 16.0543 18.3334 15.8333 18.3334H4.16665C3.94563 18.3334 3.73367 18.2456 3.57739 18.0893C3.42111 17.933 3.33331 17.721 3.33331 17.5V2.50002C3.33331 2.27901 3.42111 2.06704 3.57739 1.91076C3.73367 1.75448 3.94563 1.66669 4.16665 1.66669ZM7.49998 9.16669V6.66669L3.33331 10L7.49998 13.3334V10.8334H12.5V9.16669H7.49998Z" fill="#0F1324" fill-opacity="0.6"/>
</svg>
