<svg width="20" height="20" viewBox="0 0 20 20" fill="none" xmlns="http://www.w3.org/2000/svg">
<path d="M2.5 17.5V5.83332H7.5V4.16666L10 1.66666L12.5 4.16666V9.16666H17.5V17.5H2.5ZM4.16667 15.8333H5.83333V14.1667H4.16667V15.8333ZM4.16667 12.5H5.83333V10.8333H4.16667V12.5ZM4.16667 9.16666H5.83333V7.49999H4.16667V9.16666ZM9.16667 15.8333H10.8333V14.1667H9.16667V15.8333ZM9.16667 12.5H10.8333V10.8333H9.16667V12.5ZM9.16667 9.16666H10.8333V7.49999H9.16667V9.16666ZM9.16667 5.83332H10.8333V4.16666H9.16667V5.83332ZM14.1667 15.8333H15.8333V14.1667H14.1667V15.8333ZM14.1667 12.5H15.8333V10.8333H14.1667V12.5Z" fill="#0F1324" fill-opacity="0.6"/>
</svg>
