<svg width="20" height="20" viewBox="0 0 20 20" fill="none" xmlns="http://www.w3.org/2000/svg">
<path d="M9.95835 15C10.25 15 10.4965 14.8993 10.6979 14.6979C10.8993 14.4965 11 14.25 11 13.9583C11 13.6667 10.8993 13.4201 10.6979 13.2187C10.4965 13.0174 10.25 12.9167 9.95835 12.9167C9.66669 12.9167 9.42016 13.0174 9.21877 13.2187C9.01738 13.4201 8.91669 13.6667 8.91669 13.9583C8.91669 14.25 9.01738 14.4965 9.21877 14.6979C9.42016 14.8993 9.66669 15 9.95835 15ZM9.20835 11.7917H10.75C10.75 11.3333 10.8021 10.9722 10.9063 10.7083C11.0104 10.4444 11.3056 10.0833 11.7917 9.62499C12.1528 9.26388 12.4375 8.92013 12.6459 8.59374C12.8542 8.26735 12.9584 7.87499 12.9584 7.41666C12.9584 6.63888 12.6736 6.04166 12.1042 5.62499C11.5347 5.20832 10.8611 4.99999 10.0834 4.99999C9.29169 4.99999 8.64933 5.20832 8.15627 5.62499C7.66321 6.04166 7.31946 6.54166 7.12502 7.12499L8.50002 7.66666C8.56946 7.41666 8.72571 7.14582 8.96877 6.85416C9.21183 6.56249 9.58335 6.41666 10.0834 6.41666C10.5278 6.41666 10.8611 6.53818 11.0834 6.78124C11.3056 7.02429 11.4167 7.29166 11.4167 7.58332C11.4167 7.8611 11.3334 8.12152 11.1667 8.36457C11 8.60763 10.7917 8.83332 10.5417 9.04166C9.93058 9.58332 9.55558 9.99304 9.41669 10.2708C9.2778 10.5486 9.20835 11.0555 9.20835 11.7917ZM10 18.3333C8.84724 18.3333 7.76391 18.1146 6.75002 17.6771C5.73613 17.2396 4.85419 16.6458 4.10419 15.8958C3.35419 15.1458 2.76044 14.2639 2.32294 13.25C1.88544 12.2361 1.66669 11.1528 1.66669 9.99999C1.66669 8.84721 1.88544 7.76388 2.32294 6.74999C2.76044 5.7361 3.35419 4.85416 4.10419 4.10416C4.85419 3.35416 5.73613 2.76041 6.75002 2.32291C7.76391 1.88541 8.84724 1.66666 10 1.66666C11.1528 1.66666 12.2361 1.88541 13.25 2.32291C14.2639 2.76041 15.1459 3.35416 15.8959 4.10416C16.6459 4.85416 17.2396 5.7361 17.6771 6.74999C18.1146 7.76388 18.3334 8.84721 18.3334 9.99999C18.3334 11.1528 18.1146 12.2361 17.6771 13.25C17.2396 14.2639 16.6459 15.1458 15.8959 15.8958C15.1459 16.6458 14.2639 17.2396 13.25 17.6771C12.2361 18.1146 11.1528 18.3333 10 18.3333ZM10 16.6667C11.8611 16.6667 13.4375 16.0208 14.7292 14.7292C16.0209 13.4375 16.6667 11.8611 16.6667 9.99999C16.6667 8.13888 16.0209 6.56249 14.7292 5.27082C13.4375 3.97916 11.8611 3.33332 10 3.33332C8.13891 3.33332 6.56252 3.97916 5.27085 5.27082C3.97919 6.56249 3.33335 8.13888 3.33335 9.99999C3.33335 11.8611 3.97919 13.4375 5.27085 14.7292C6.56252 16.0208 8.13891 16.6667 10 16.6667Z" fill="#0F1324" fill-opacity="0.6"/>
</svg>
