<svg width="20" height="20" viewBox="0 0 20 20" fill="none" xmlns="http://www.w3.org/2000/svg">
<path d="M7.33333 17.5H4.16667C3.70833 17.5 3.31597 17.3368 2.98958 17.0104C2.66319 16.684 2.5 16.2917 2.5 15.8333V12.6667C3.16667 12.6667 3.75 12.4549 4.25 12.0312C4.75 11.6076 5 11.0694 5 10.4167C5 9.76389 4.75 9.22569 4.25 8.80208C3.75 8.37847 3.16667 8.16667 2.5 8.16667V5C2.5 4.54167 2.66319 4.14931 2.98958 3.82292C3.31597 3.49653 3.70833 3.33333 4.16667 3.33333H7.5C7.5 2.75 7.70139 2.25694 8.10417 1.85417C8.50694 1.45139 9 1.25 9.58333 1.25C10.1667 1.25 10.6597 1.45139 11.0625 1.85417C11.4653 2.25694 11.6667 2.75 11.6667 3.33333H15C15.4583 3.33333 15.8507 3.49653 16.1771 3.82292C16.5035 4.14931 16.6667 4.54167 16.6667 5V8.33333C17.25 8.33333 17.7431 8.53472 18.1458 8.9375C18.5486 9.34028 18.75 9.83333 18.75 10.4167C18.75 11 18.5486 11.4931 18.1458 11.8958C17.7431 12.2986 17.25 12.5 16.6667 12.5V15.8333C16.6667 16.2917 16.5035 16.684 16.1771 17.0104C15.8507 17.3368 15.4583 17.5 15 17.5H11.8333C11.8333 16.8056 11.6146 16.2153 11.1771 15.7292C10.7396 15.2431 10.2083 15 9.58333 15C8.95833 15 8.42708 15.2431 7.98958 15.7292C7.55208 16.2153 7.33333 16.8056 7.33333 17.5ZM4.16667 15.8333H5.9375C6.27083 14.9167 6.80556 14.2708 7.54167 13.8958C8.27778 13.5208 8.95833 13.3333 9.58333 13.3333C10.2083 13.3333 10.8889 13.5208 11.625 13.8958C12.3611 14.2708 12.8958 14.9167 13.2292 15.8333H15V10.8333H16.6667C16.7778 10.8333 16.875 10.7917 16.9583 10.7083C17.0417 10.625 17.0833 10.5278 17.0833 10.4167C17.0833 10.3056 17.0417 10.2083 16.9583 10.125C16.875 10.0417 16.7778 10 16.6667 10H15V5H10V3.33333C10 3.22222 9.95833 3.125 9.875 3.04167C9.79167 2.95833 9.69444 2.91667 9.58333 2.91667C9.47222 2.91667 9.375 2.95833 9.29167 3.04167C9.20833 3.125 9.16667 3.22222 9.16667 3.33333V5H4.16667V6.83333C4.91667 7.11111 5.52083 7.57639 5.97917 8.22917C6.4375 8.88194 6.66667 9.61111 6.66667 10.4167C6.66667 11.2083 6.4375 11.9306 5.97917 12.5833C5.52083 13.2361 4.91667 13.7083 4.16667 14V15.8333Z" fill="#0F1324" fill-opacity="0.6"/>
</svg>
