<svg width="33" height="32" viewBox="0 0 33 32" fill="none" xmlns="http://www.w3.org/2000/svg">
<path d="M0.599854 12.8C0.599854 8.31958 0.599854 6.07937 1.4718 4.36808C2.23879 2.86278 3.46263 1.63893 4.96793 0.871948C6.67922 0 8.91943 0 13.3999 0H19.7999C24.2803 0 26.5205 0 28.2318 0.871948C29.7371 1.63893 30.9609 2.86278 31.7279 4.36808C32.5999 6.07937 32.5999 8.31958 32.5999 12.8V19.2C32.5999 23.6804 32.5999 25.9206 31.7279 27.6319C30.9609 29.1372 29.7371 30.3611 28.2318 31.1281C26.5205 32 24.2803 32 19.7999 32H13.3999C8.91943 32 6.67922 32 4.96793 31.1281C3.46263 30.3611 2.23879 29.1372 1.4718 27.6319C0.599854 25.9206 0.599854 23.6804 0.599854 19.2V12.8Z" fill="url(#paint0_linear_2_19515)"/>
<g filter="url(#filter0_d_2_19515)">
<path d="M17.0139 9H25.5999C25.8651 9 26.1194 9.10536 26.307 9.29289C26.4945 9.48043 26.5999 9.73478 26.5999 10V24C26.5999 24.2652 26.4945 24.5196 26.307 24.7071C26.1194 24.8946 25.8651 25 25.5999 25H7.59985C7.33464 25 7.08028 24.8946 6.89275 24.7071C6.70521 24.5196 6.59985 24.2652 6.59985 24V8C6.59985 7.73478 6.70521 7.48043 6.89275 7.29289C7.08028 7.10536 7.33464 7 7.59985 7H15.0139L17.0139 9ZM15.5999 13V15H17.5999V13H15.5999ZM15.5999 16V21H17.5999V16H15.5999Z" fill="url(#paint1_linear_2_19515)"/>
</g>
<defs>
<filter id="filter0_d_2_19515" x="4.09985" y="3.75" width="25" height="25" filterUnits="userSpaceOnUse" color-interpolation-filters="sRGB">
<feFlood flood-opacity="0" result="BackgroundImageFix"/>
<feColorMatrix in="SourceAlpha" type="matrix" values="0 0 0 0 0 0 0 0 0 0 0 0 0 0 0 0 0 0 127 0" result="hardAlpha"/>
<feOffset dy="0.25"/>
<feGaussianBlur stdDeviation="0.25"/>
<feComposite in2="hardAlpha" operator="out"/>
<feColorMatrix type="matrix" values="0 0 0 0 0 0 0 0 0 0 0 0 0 0 0 0 0 0 0.2 0"/>
<feBlend mode="normal" in2="BackgroundImageFix" result="effect1_dropShadow_2_19515"/>
<feBlend mode="normal" in="SourceGraphic" in2="effect1_dropShadow_2_19515" result="shape"/>
</filter>
<linearGradient id="paint0_linear_2_19515" x1="16.5999" y1="0" x2="16.5999" y2="32" gradientUnits="userSpaceOnUse">
<stop stop-color="#F9742C"/>
<stop offset="1" stop-color="#F20486"/>
</linearGradient>
<linearGradient id="paint1_linear_2_19515" x1="16.5999" y1="7" x2="16.5999" y2="25" gradientUnits="userSpaceOnUse">
<stop stop-color="white"/>
<stop offset="1" stop-color="white" stop-opacity="0.7"/>
</linearGradient>
</defs>
</svg>
