<svg width="20" height="20" viewBox="0 0 20 20" fill="none" xmlns="http://www.w3.org/2000/svg">
<path d="M0 20V0H10V4.44444H20V20H0ZM2 17.7778H4V15.5556H2V17.7778ZM2 13.3333H4V11.1111H2V13.3333ZM2 8.88889H4V6.66667H2V8.88889ZM2 4.44444H4V2.22222H2V4.44444ZM6 17.7778H8V15.5556H6V17.7778ZM6 13.3333H8V11.1111H6V13.3333ZM6 8.88889H8V6.66667H6V8.88889ZM6 4.44444H8V2.22222H6V4.44444ZM10 17.7778H18V6.66667H10V8.88889H12V11.1111H10V13.3333H12V15.5556H10V17.7778ZM14 11.1111V8.88889H16V11.1111H14ZM14 15.5556V13.3333H16V15.5556H14Z" fill="#0F1324" fill-opacity="0.6"/>
</svg>
